<?xml version="1.0" encoding="UTF-8" standalone="no"?>
<!-- Created with Inkscape (http://www.inkscape.org/) -->

<svg
   xmlns:dc="http://purl.org/dc/elements/1.1/"
   xmlns:cc="http://creativecommons.org/ns#"
   xmlns:rdf="http://www.w3.org/1999/02/22-rdf-syntax-ns#"
   xmlns:svg="http://www.w3.org/2000/svg"
   xmlns="http://www.w3.org/2000/svg"
   xmlns:sodipodi="http://sodipodi.sourceforge.net/DTD/sodipodi-0.dtd"
   xmlns:inkscape="http://www.inkscape.org/namespaces/inkscape"
   id="svg5297"
   version="1.1"
   inkscape:version="0.91 r13725"
   xml:space="preserve"
   width="4668.75"
   height="2618.75"
   viewBox="0 0 4668.75 2618.75"
   sodipodi:docname="lcarssdk_vectorTemplate.ai.svg"><metadata
     id="metadata5303"><rdf:RDF><cc:Work
         rdf:about=""><dc:format>image/svg+xml</dc:format><dc:type
           rdf:resource="http://purl.org/dc/dcmitype/StillImage" /><dc:title></dc:title></cc:Work></rdf:RDF></metadata><defs
     id="defs5301"><clipPath
       clipPathUnits="userSpaceOnUse"
       id="clipPath5313"><path
         d="m 0,2095 3735,0 L 3735,0 0,0 0,2095 Z"
         id="path5315"
         inkscape:connector-curvature="0" /></clipPath><clipPath
       clipPathUnits="userSpaceOnUse"
       id="clipPath5395"><path
         d="m 0,2095 3735,0 L 3735,0 0,0 0,2095 Z"
         id="path5397"
         inkscape:connector-curvature="0" /></clipPath><clipPath
       clipPathUnits="userSpaceOnUse"
       id="clipPath5411"><path
         d="m 0,2095 3735,0 L 3735,0 0,0 0,2095 Z"
         id="path5413"
         inkscape:connector-curvature="0" /></clipPath><clipPath
       clipPathUnits="userSpaceOnUse"
       id="clipPath5425"><path
         d="m 0,2095 3735,0 L 3735,0 0,0 0,2095 Z"
         id="path5427"
         inkscape:connector-curvature="0" /></clipPath><clipPath
       clipPathUnits="userSpaceOnUse"
       id="clipPath5459"><path
         d="m 0,2095 3735,0 L 3735,0 0,0 0,2095 Z"
         id="path5461"
         inkscape:connector-curvature="0" /></clipPath><clipPath
       clipPathUnits="userSpaceOnUse"
       id="clipPath5565"><path
         d="m 0,2095 3735,0 L 3735,0 0,0 0,2095 Z"
         id="path5567"
         inkscape:connector-curvature="0" /></clipPath><clipPath
       clipPathUnits="userSpaceOnUse"
       id="clipPath5589"><path
         d="m 0,2095 3735,0 L 3735,0 0,0 0,2095 Z"
         id="path5591"
         inkscape:connector-curvature="0" /></clipPath><clipPath
       clipPathUnits="userSpaceOnUse"
       id="clipPath5811"><path
         d="m 0,2095 3735,0 L 3735,0 0,0 0,2095 Z"
         id="path5813"
         inkscape:connector-curvature="0" /></clipPath><clipPath
       clipPathUnits="userSpaceOnUse"
       id="clipPath5827"><path
         d="m 0,2095 3735,0 L 3735,0 0,0 0,2095 Z"
         id="path5829"
         inkscape:connector-curvature="0" /></clipPath><clipPath
       clipPathUnits="userSpaceOnUse"
       id="clipPath5847"><path
         d="m 0,2095 3735,0 L 3735,0 0,0 0,2095 Z"
         id="path5849"
         inkscape:connector-curvature="0" /></clipPath><clipPath
       clipPathUnits="userSpaceOnUse"
       id="clipPath5867"><path
         d="m 0,2095 3735,0 L 3735,0 0,0 0,2095 Z"
         id="path5869"
         inkscape:connector-curvature="0" /></clipPath><clipPath
       clipPathUnits="userSpaceOnUse"
       id="clipPath5881"><path
         d="m 0,2095 3735,0 L 3735,0 0,0 0,2095 Z"
         id="path5883"
         inkscape:connector-curvature="0" /></clipPath></defs><sodipodi:namedview
     pagecolor="#000000"
     bordercolor="#666666"
     borderopacity="1"
     objecttolerance="10"
     gridtolerance="10"
     guidetolerance="10"
     inkscape:pageopacity="0"
     inkscape:pageshadow="2"
     inkscape:window-width="1453"
     inkscape:window-height="908"
     id="namedview5299"
     showgrid="false"
     inkscape:zoom="0.35355339"
     inkscape:cx="3227.7062"
     inkscape:cy="2005.6138"
     inkscape:window-x="0"
     inkscape:window-y="0"
     inkscape:window-maximized="0"
     inkscape:current-layer="g5305"
     inkscape:snap-text-baseline="true" /><g
     id="g5305"
     inkscape:groupmode="layer"
     inkscape:label="lcarssdk_vectorTemplate"
     transform="matrix(1.25,0,0,-1.25,0,2618.75)"><g
       id="g5309"><g
         id="g5311"
         clip-path="url(#clipPath5313)"><g
           id="g5317"
           transform="translate(1039,1702)"><path
             d="m 0,0 0,-100 c 0,-16.568 14,-30 30,-30 l 0,-5 0,-25 -105,0 c -41.422,0 -75,33.579 -75,75 l 0,85 150,0 z"
             style="fill:#3366ff;fill-opacity:1;fill-rule:nonzero;stroke:none"
             id="path5319"
             inkscape:connector-curvature="0" /></g><g
           id="g5321"
           transform="translate(1775,790.0005)"><path
             d="m 0,0 -30,0 c -16.568,0 -30,13.432 -30,30 0,16.568 13.432,30 30,30 L 0,60 0,0 Z"
             style="fill:#3366ff;fill-opacity:1;fill-rule:nonzero;stroke:none"
             id="path5323"
             inkscape:connector-curvature="0" /></g><g
           id="g5325"
           transform="translate(1865,1180.0005)"><path
             d="m 0,0 -120,0 c -16.568,0 -30,13.432 -30,30 0,16.568 13.432,30 30,30 L 0,60 0,0 Z"
             style="fill:#3366ff;fill-opacity:1;fill-rule:nonzero;stroke:none"
             id="path5327"
             inkscape:connector-curvature="0" /></g><g
           id="g5329"
           transform="translate(3103.9971,1825)"><path
             d="m 0,0 125,0 c 16.568,0 30,-13.432 30,-30 0,-16.568 -13.432,-30 -30,-30 L 0,-60 0,0 Z"
             style="fill:#3366ff;fill-opacity:1;fill-rule:nonzero;stroke:none"
             id="path5331"
             inkscape:connector-curvature="0" /></g><g
           id="g5333"
           transform="translate(3008.999,1765)"><path
             d="m 0,0 -30,0 c -16.568,0 -30,13.432 -30,30 0,16.568 13.432,30 30,30 L 0,60 0,0 Z"
             style="fill:#3366ff;fill-opacity:1;fill-rule:nonzero;stroke:none"
             id="path5335"
             inkscape:connector-curvature="0" /></g><path
           d="m 3038.999,1765 -25,0 0,60 25,0 0,-60 z"
           style="fill:#3366ff;fill-opacity:1;fill-rule:nonzero;stroke:none"
           id="path5337"
           inkscape:connector-curvature="0" /><g
           id="g5339"
           transform="translate(1839,785.0005)"><path
             d="m 0,0 0,-125 -62.5,0 c -34.518,0 -62.5,27.981 -62.5,62.5 0,34.518 27.982,62.5 62.5,62.5 L 0,0 Z"
             style="fill:#3366ff;fill-opacity:1;fill-rule:nonzero;stroke:none"
             id="path5341"
             inkscape:connector-curvature="0" /></g><g
           id="g5343"
           transform="translate(1970,1889)"><path
             d="m 0,0 0,-13 12.001,0 C 16.419,-13 20,-16.582 20,-21 l 0,-14 13,0 0,-13 8,0 0,28 C 41,-8.954 32.044,0 21.001,0 L 0,0 Z"
             style="fill:#3366ff;fill-opacity:1;fill-rule:nonzero;stroke:none"
             id="path5345"
             inkscape:connector-curvature="0" /></g><g
           id="g5347"
           transform="translate(1970,1634)"><path
             d="m 0,0 0,13 12.001,0 C 16.419,13 20,16.583 20,21 l 0,14 13,0 0,13 8,0 0,-28 C 41,8.955 32.044,0 21.001,0 L 0,0 Z"
             style="fill:#3366ff;fill-opacity:1;fill-rule:nonzero;stroke:none"
             id="path5349"
             inkscape:connector-curvature="0" /></g><g
           id="g5351"
           transform="translate(1747,1889)"><path
             d="m 0,0 0,-13 -12,0 c -4.418,0 -8,-3.582 -8,-8 l 0,-27 -8,0 0,13 -13,0 0,15 c 0,11.046 8.954,20 20,20 L 0,0 Z"
             style="fill:#3366ff;fill-opacity:1;fill-rule:nonzero;stroke:none"
             id="path5353"
             inkscape:connector-curvature="0" /></g><g
           id="g5355"
           transform="translate(1747,1634)"><path
             d="m 0,0 0,13 -12,0 c -4.418,0 -8,3.583 -8,8 l 0,27 -8,0 0,-13 -13,0 0,-15 C -41,8.955 -32.046,0 -21,0 L 0,0 Z"
             style="fill:#3366ff;fill-opacity:1;fill-rule:nonzero;stroke:none"
             id="path5357"
             inkscape:connector-curvature="0" /></g><path
           d="m 1714,1739 -8,0 0,45 8,0 0,-45 z"
           style="fill:#3366ff;fill-opacity:1;fill-rule:nonzero;stroke:none"
           id="path5359"
           inkscape:connector-curvature="0" /><path
           d="m 1714,1787 -8,0 0,64 8,0 0,-64 z"
           style="fill:#3366ff;fill-opacity:1;fill-rule:nonzero;stroke:none"
           id="path5361"
           inkscape:connector-curvature="0" /><path
           d="m 1714,1672 -8,0 0,64 8,0 0,-64 z"
           style="fill:#3366ff;fill-opacity:1;fill-rule:nonzero;stroke:none"
           id="path5363"
           inkscape:connector-curvature="0" /><path
           d="m 1727,1744 -8,0 0,35 8,0 0,-35 z"
           style="fill:#3366ff;fill-opacity:1;fill-rule:nonzero;stroke:none"
           id="path5365"
           inkscape:connector-curvature="0" /><path
           d="m 1727,1782 -8,0 0,56 8,0 0,-56 z"
           style="fill:#3366ff;fill-opacity:1;fill-rule:nonzero;stroke:none"
           id="path5367"
           inkscape:connector-curvature="0" /><path
           d="m 1727,1685 -8,0 0,56 8,0 0,-56 z"
           style="fill:#3366ff;fill-opacity:1;fill-rule:nonzero;stroke:none"
           id="path5369"
           inkscape:connector-curvature="0" /><path
           d="m 2011,1744 -8,0 0,35 8,0 0,-35 z"
           style="fill:#3366ff;fill-opacity:1;fill-rule:nonzero;stroke:none"
           id="path5371"
           inkscape:connector-curvature="0" /><path
           d="m 2011,1782 -8,0 0,56 8,0 0,-56 z"
           style="fill:#3366ff;fill-opacity:1;fill-rule:nonzero;stroke:none"
           id="path5373"
           inkscape:connector-curvature="0" /><path
           d="m 2011,1685 -8,0 0,56 8,0 0,-56 z"
           style="fill:#3366ff;fill-opacity:1;fill-rule:nonzero;stroke:none"
           id="path5375"
           inkscape:connector-curvature="0" /><path
           d="m 1998,1739 -8,0 0,45 8,0 0,-45 z"
           style="fill:#3366ff;fill-opacity:1;fill-rule:nonzero;stroke:none"
           id="path5377"
           inkscape:connector-curvature="0" /><path
           d="m 1998,1787 -8,0 0,64 8,0 0,-64 z"
           style="fill:#3366ff;fill-opacity:1;fill-rule:nonzero;stroke:none"
           id="path5379"
           inkscape:connector-curvature="0" /><path
           d="m 1998,1672 -8,0 0,64 8,0 0,-64 z"
           style="fill:#3366ff;fill-opacity:1;fill-rule:nonzero;stroke:none"
           id="path5381"
           inkscape:connector-curvature="0" /><g
           id="g5383"
           transform="translate(930,1165)"><path
             d="m 0,0 0,13 -12,0 c -4.418,0 -8,3.583 -8,8 l 0,14 -5,0 -3,0 -13,0 0,-15 C -41,8.955 -32.046,0 -21,0 L 0,0 Z"
             style="fill:#2d87c8;fill-opacity:1;fill-rule:nonzero;stroke:none"
             id="path5385"
             inkscape:connector-curvature="0" /></g></g></g><text
       transform="matrix(1,0,0,-1,3072,1766)"
       style="font-variant:normal;font-weight:normal;font-stretch:normal;font-size:81.35269928px;font-family:LCARS;-inkscape-font-specification:LCARS;writing-mode:lr-tb;fill:#ffffff;fill-opacity:1;fill-rule:nonzero;stroke:none"
       id="text5387"><tspan
         x="0 -28.961561"
         y="0"
         sodipodi:role="line"
         id="tspan5389"
         style="-inkscape-font-specification:LCARSGTJ3;font-family:LCARSGTJ3;font-weight:normal;font-style:normal;font-stretch:normal;font-variant:normal;font-size:50px;">55</tspan></text>
<g
       id="g5421"><g
         id="g5423"
         clip-path="url(#clipPath5425)"><path
           d="m 1865,1049 -150,0 0,60 150,0 0,-60 z"
           style="fill:#3366ff;fill-opacity:1;fill-rule:nonzero;stroke:none"
           id="path5429"
           inkscape:connector-curvature="0" /><g
           id="g5431"
           transform="translate(1865,1146)"><path
             d="m 0,0 c 0,-16.568 -13.432,-30 -30,-30 l -90,0 c -16.568,0 -30,13.432 -30,30 0,16.568 13.432,30 30,30 l 90,0 C -13.432,30 0,16.568 0,0"
             style="fill:#3366ff;fill-opacity:1;fill-rule:nonzero;stroke:none"
             id="path5433"
             inkscape:connector-curvature="0" /></g><path
           d="m 1865,1015 -150,0 0,30 150,0 0,-30 z"
           style="fill:#3366ff;fill-opacity:1;fill-rule:nonzero;stroke:none"
           id="path5435"
           inkscape:connector-curvature="0" /><path
           d="m 1865,964 -150,0 0,15 150,0 0,-15 z"
           style="fill:#3366ff;fill-opacity:1;fill-rule:nonzero;stroke:none"
           id="path5437"
           inkscape:connector-curvature="0" /><g
           id="g5439"
           transform="translate(1730,885.0005)"><path
             d="m 0,0 c -8.284,0 -15,6.716 -15,15 0,8.284 6.716,15 15,15 L 15,30 15,0 0,0 Z"
             style="fill:#3366ff;fill-opacity:1;fill-rule:nonzero;stroke:none"
             id="path5441"
             inkscape:connector-curvature="0" /></g></g></g><text
       transform="matrix(1,0,0,-1,1716,401)"
       style="font-variant:normal;font-weight:normal;font-stretch:normal;font-size:81.35269928px;font-family:LCARS;-inkscape-font-specification:LCARS;writing-mode:lr-tb;fill:#ffffff;fill-opacity:1;fill-rule:nonzero;stroke:none"
       id="text5443"><tspan
         x="0 23.510931 36.77142 60.282352 81.189995 103.39928 116.74113 140.25206 162.46135 187.59932"
         y="0"
         sodipodi:role="line"
         id="tspan5445">TITLE TEXT</tspan></text>
<text
       transform="matrix(1,0,0,-1,1715,531.0005)"
       style="font-variant:normal;font-weight:normal;font-stretch:normal;font-size:40.91260147px;font-family:LCARS;-inkscape-font-specification:LCARS;writing-mode:lr-tb;fill:#ffffff;fill-opacity:1;fill-rule:nonzero;stroke:none"
       id="text5447"><tspan
         x="0 13.05112 26.470451 39.685223 46.39489 58.218628 69.387772 82.029762"
         y="0"
         sodipodi:role="line"
         id="tspan5449">BAR TEXT</tspan><tspan
         x="1105.0084 1118.4686 1132.0925 1144.5709 1151.2805 1166.991 1178.3647 1184.0925 1190.8021 1204.9824 1210.7102 1216.438 1222.1658 1227.8936 1233.6212 1244.9131 1250.6409 1262.0146 1273.3883 1280.098 1291.9218 1303.2954 1314.6691 1331.5251"
         y="113.0006"
         sodipodi:role="line"
         id="tspan5451">USS Not Affiliated Theme</tspan><tspan
         x="567.00775 579.85431 593.06903 599.73779 618.88489 632.30426 646.28815 863.99231 876.47064 887.63977 900.40448 913.86475 929.5752 943.0354 956.45477 970.43866 1191.9886 1206.173 1218.9377 1231.7025 1242.8716 1258.582 1270.4058 1494.0054 1507.5475 1514.2162 1527.4719 1541.014 1551.5286 1558.1973 1571.453 1584.995 1596.8187 1831.0024 1844.2173 1855.3864 1868.8467"
         y="180.01544"
         sodipodi:role="line"
         id="tspan5453">PRIMARYSECONDARYACCENTSHIGHLIGHTSREDS</tspan></text>
<g
       id="g5455"><g
         id="g5457"
         clip-path="url(#clipPath5459)"><g
           id="g5463"
           transform="translate(559,1683.0005)"><path
             d="M 0,0 C -41.422,0 -75,-33.578 -75,-75"
             style="fill:#3366ff;fill-opacity:1;fill-rule:nonzero;stroke:none"
             id="path5465"
             inkscape:connector-curvature="0" /></g><g
           id="g5467"
           transform="translate(569,773.0005)"><path
             d="M 0,0 C -41.422,0 -75,-33.578 -75,-75"
             style="fill:#3366ff;fill-opacity:1;fill-rule:nonzero;stroke:none"
             id="path5469"
             inkscape:connector-curvature="0" /></g><g
           id="g5471"
           transform="translate(532,1607.0005)"><path
             d="M 0,0 C 0,16.568 13.432,30 30,30"
             style="fill:#3366ff;fill-opacity:1;fill-rule:nonzero;stroke:none"
             id="path5473"
             inkscape:connector-curvature="0" /></g><g
           id="g5475"
           transform="translate(512,1367.0005)"><path
             d="M 0,0 C 0,16.568 13.432,30 30,30"
             style="fill:#3366ff;fill-opacity:1;fill-rule:nonzero;stroke:none"
             id="path5477"
             inkscape:connector-curvature="0" /></g><g
           id="g5479"
           transform="translate(498,1032.0005)"><path
             d="M 0,0 C 0,16.568 13.432,30 30,30"
             style="fill:#3366ff;fill-opacity:1;fill-rule:nonzero;stroke:none"
             id="path5481"
             inkscape:connector-curvature="0" /></g><g
           id="g5483"
           transform="translate(499,1178.0005)"><path
             d="M 0,0 C 0,11.598 9.402,21 21,21"
             style="fill:#3366ff;fill-opacity:1;fill-rule:nonzero;stroke:none"
             id="path5485"
             inkscape:connector-curvature="0" /></g><g
           id="g5487"
           transform="translate(517,1026.0005)"><path
             d="M 0,0 C 0,11.598 9.402,21 21,21"
             style="fill:#3366ff;fill-opacity:1;fill-rule:nonzero;stroke:none"
             id="path5489"
             inkscape:connector-curvature="0" /></g><g
           id="g5491"
           transform="translate(514,1174.0005)"><path
             d="M 0,0 C 0,5.523 4.477,10 10,10"
             style="fill:#3366ff;fill-opacity:1;fill-rule:nonzero;stroke:none"
             id="path5493"
             inkscape:connector-curvature="0" /></g><path
           d="m 2179.999,1799 30.002,0 0,-30 -30.002,0 0,30 z"
           style="fill:#3366ff;fill-opacity:1;fill-rule:nonzero;stroke:none"
           id="path5495"
           inkscape:connector-curvature="0" /><path
           d="m 2179.999,1764 30.002,0 0,-30 -30.002,0 0,30 z"
           style="fill:#3366ff;fill-opacity:1;fill-rule:nonzero;stroke:none"
           id="path5497"
           inkscape:connector-curvature="0" /><path
           d="m 2248.005,1893.995 324,0 0,-19.994 -324,0 0,19.994 z"
           style="fill:#3366ff;fill-opacity:1;fill-rule:nonzero;stroke:none"
           id="path5499"
           inkscape:connector-curvature="0" /><g
           id="g5501"
           transform="translate(2210.001,1639.0005)"><path
             d="m 0,0 c -16.568,0 -30.002,13.432 -30.002,30 l 0,60 23.125,0 L 0,90 0,81 C 0,69.402 9.402,60 21,60 L 58,60 58,0 0,0 Z"
             style="fill:#3366ff;fill-opacity:1;fill-rule:nonzero;stroke:none"
             id="path5503"
             inkscape:connector-curvature="0" /></g><g
           id="g5505"
           transform="translate(2609.999,1639.0005)"><path
             d="M 0,0 C 16.568,0 30,13.432 30,30 L 30,115 6.877,115 0,115 0,81 C 0,69.402 -9.402,60 -21,60 l -183.998,0 0,-60 L 0,0 Z"
             style="fill:#3366ff;fill-opacity:1;fill-rule:nonzero;stroke:none"
             id="path5507"
             inkscape:connector-curvature="0" /></g><g
           id="g5509"
           transform="translate(2609.999,1894)"><path
             d="M 0,0 C 16.568,0 30,-13.432 30,-30 L 30,-75 6.877,-75 0,-75 0,-41 c 0,11.598 -9.402,21 -21,21 l -17,0 0,20 38,0 z"
             style="fill:#3366ff;fill-opacity:1;fill-rule:nonzero;stroke:none"
             id="path5511"
             inkscape:connector-curvature="0" /></g><g
           id="g5513"
           transform="translate(2210.001,1894)"><path
             d="m 0,0 c -16.568,0 -30.002,-13.432 -30.002,-30 l 0,-60 23.125,0 6.877,0 0,49 c 0,11.598 9.402,21 21,21 l 17,0 0,20 -38,0 z"
             style="fill:#3366ff;fill-opacity:1;fill-rule:nonzero;stroke:none"
             id="path5515"
             inkscape:connector-curvature="0" /></g><path
           d="m 2640,1760 -30,0 0,54 30,0 0,-54 z"
           style="fill:#3366ff;fill-opacity:1;fill-rule:nonzero;stroke:none"
           id="path5517"
           inkscape:connector-curvature="0" /></g></g><text
       transform="matrix(1,0,0,-1,668,1623)"
       style="font-variant:normal;font-weight:normal;font-stretch:normal;font-size:50px;font-family:LCARSGTJ3;-inkscape-font-specification:LCARSGTJ3;writing-mode:lr-tb;fill:#ffffff;fill-opacity:1;fill-rule:nonzero;stroke:none;"
       id="text5519"><tspan
         x="0 15.773296 29.048767 44.544529 59.762753 74.240883 90.661758"
         y="0"
         sodipodi:role="line"
         id="tspan5521">REGULAR</tspan><tspan
         x="25.995872 40.751537 58.055904 72.626549"
         y="244.0004"
         sodipodi:role="line"
         id="tspan5523">BASE</tspan></text>
<text
       transform="matrix(1,0,0,-1,598,1781.9995)"
       style="font-variant:normal;font-weight:normal;font-stretch:normal;font-size:50px;font-family:LCARSGTJ3;-inkscape-font-specification:LCARSGTJ3;writing-mode:lr-tb;fill:#ffffff;fill-opacity:1;fill-rule:nonzero;stroke:none;"
       id="text5525"><tspan
         x="0 32.662037 64.072212 102.47002 139.91187 196.64366"
         y="0"
         sodipodi:role="line"
         id="tspan5527">ELBOWS</tspan></text>
<text
       transform="matrix(1,0,0,-1,698,753)"
       style="font-variant:normal;font-weight:normal;font-stretch:normal;font-size:50px;font-family:LCARSGTJ3;-inkscape-font-specification:LCARSGTJ3;writing-mode:lr-tb;fill:#ffffff;fill-opacity:1;fill-rule:nonzero;stroke:none;"
       id="text5529"><tspan
         x="0 14.478128 30.899008 46.672302 62.168064"
         y="0"
         sodipodi:role="line"
         id="tspan5531">LARGE</tspan></text>
<text
       transform="matrix(1,0,0,-1,688,1031)"
       style="font-variant:normal;font-weight:normal;font-stretch:normal;font-size:50px;font-family:LCARSGTJ3;-inkscape-font-specification:LCARSGTJ3;writing-mode:lr-tb;fill:#ffffff;fill-opacity:1;fill-rule:nonzero;stroke:none;"
       id="text5555"><tspan
         x="0 21.647808 34.923279 50.141502 57.681232 72.899452"
         y="0"
         sodipodi:role="line"
         id="tspan5557">MEDIUM</tspan><tspan
         x="0 14.57064 36.218449 52.639328 65.405983"
         y="-148.0192"
         sodipodi:role="line"
         id="tspan5559">SMALL</tspan></text>
<g
       id="g5561"><g
         id="g5563"
         clip-path="url(#clipPath5565)"><g
           id="g5569"
           transform="translate(920,1004.0005)"><path
             d="m 0,0 c -16.568,0 -30,13.432 -30,30 l 0,60 23.124,0 L 0,90 0,81 C 0,69.402 9.402,60 21,60 L 58,60 58,0 0,0 Z"
             style="fill:#3366ff;fill-opacity:1;fill-rule:nonzero;stroke:none"
             id="path5571"
             inkscape:connector-curvature="0" /></g></g></g><text
       transform="matrix(1,0,0,-1,55,200)"
       style="font-variant:normal;font-weight:normal;font-stretch:normal;font-size:50px;font-family:LCARSGTJ3;-inkscape-font-specification:LCARSGTJ3;writing-mode:lr-tb;fill:#ffffff;fill-opacity:1;fill-rule:nonzero;stroke:none;"
       id="text5573"><tspan
         x="0 11.263489 21.965363 32.667236 37.784168 46.395588 56.99762 68.073906 78.713379 88.541634 93.658562 103.48682 113.75188"
         y="0"
         sodipodi:role="line"
         id="tspan5575">/** LCARS SDK</tspan><tspan
         x="0 10.701875 15.818806 25.865463 36.192928 41.27866 51.106911 56.223843 65.022469 70.1082 78.71962 87.674248 92.791176 97.876907 107.70516 112.82209 123.89838 129.0153 139.24918 150.32545 161.5359 171.58257 176.69949 186.96455 195.76318 200.88011 210.92677 221.25423 230.20886 235.32579 243.93721 254.54237 265.61865 276.25812 286.08636 291.20331 301.03156 311.29663 322.02969"
         y="37.44096"
         sodipodi:role="line"
         id="tspan5577">* This file is a part of the LCARS SDK.</tspan><tspan
         x="0 10.701875 15.818806 26.146271 36.192928 46.239586 56.47345 66.301697 71.418633 82.682121 93.94561 104.39788 109.4836 119.53027 129.85773 140.12279 150.07585 155.19278 164.92743 175.19249 189.79446 201.05795 212.13425 222.77371 227.85944 237.59409 253.14769 258.23343 268.28009 278.60754 289.68384 301.66495 312.74121 324.0047 332.61612 343.21817 354.29443 364.93393 374.76218 380.25351 390.08176 400.34683 411.0799 422.34338 432.29645 440.90787 451.17294 461.12598 472.38947 486.99146 498.06772 507.896 517.94263 526.89728 537.53674 548.80023 557.41168 562.49738 572.23206 581.18665 593.16779 602.99603 611.95062 617.06757 631.66956"
         y="74.88192"
         sodipodi:role="line"
         id="tspan5579">* https://github.com/AricwithanA/LCARS-SDK/blob/master/LICENSE.md</tspan><tspan
         x="0 10.701875 15.818806 25.325689 35.590752 46.230225 51.347157 65.949127 76.214195 86.853668 95.808296 100.92522 106.01096 117.99207 126.79069 137.05576 147.69522 162.2972 173.37349 183.42014 188.50587 198.77094 210.75204 215.86897 226.10284 234.71426 243.66888 254.74518 264.57343 273.52805 278.64499 289.09726 299.3623 304.47925 314.52591 324.79095 329.9079 340.23535 350.28201 360.32867 370.56253 375.67947 386.94296 398.20645 413.76004 429.31366 444.32123 449.43817 458.04959 467.78424 478.8605 489.5 499.32825 509.15649 519.42157 530.15466 535.27155 545.53662 556.17609 566.62836"
         y="112.32288"
         sodipodi:role="line"
         id="tspan5581">* For more information please go to http://www.lcarssdk.org.</tspan><tspan
         x="0 10.701875 21.403749"
         y="149.76384"
         sodipodi:role="line"
         id="tspan5583">**/</tspan></text>
<path
       d="m 2330.002,725 -150.002,0 0,60 150.002,0 0,-60 z"
       style="fill:#3366ff;fill-opacity:1;fill-rule:nonzero;stroke:none"
       id="path5593"
       inkscape:connector-curvature="0" /><path
       d="m 2330.002,790 -150.002,0 0,125 150.002,0 0,-125 z"
       style="fill:#3366ff;fill-opacity:1;fill-rule:nonzero;stroke:none"
       id="path5595"
       inkscape:connector-curvature="0" /><path
       d="m 2330.002,920 -150.002,0 0,190 150.002,0 0,-190 z"
       style="fill:#3366ff;fill-opacity:1;fill-rule:nonzero;stroke:none"
       id="path5597"
       inkscape:connector-curvature="0" /><path
       d="m 2330.002,465 -150.002,0 0,254.998 150.002,0 0,-254.998 z"
       style="fill:#3366ff;fill-opacity:1;fill-rule:nonzero;stroke:none"
       id="path5599"
       inkscape:connector-curvature="0" /><path
       d="m 2330.002,1375 -150.002,0 0,125 150.002,0 0,-125 z"
       style="fill:#3366ff;fill-opacity:1;fill-rule:nonzero;stroke:none"
       id="path5601"
       inkscape:connector-curvature="0" /><g
       id="g5603"
       transform="translate(2330,1370)"><path
         d="m 0,0 0,-100 c 0,-16.568 13,-30 30,-30 l 0,-5 0,-25 -104.998,0 c -41.422,0 -75.002,33.578 -75.002,75 l 0,85 150,0 z"
         style="fill:#3366ff;fill-opacity:1;fill-rule:nonzero;stroke:none"
         id="path5605"
         inkscape:connector-curvature="0" /></g><g
       id="g5607"
       transform="translate(2330,1115)"><path
         d="m 0,0 0,30 c 0,16.568 13,30 30,30 l 0,5 0,25 -104.998,0 C -116.42,90 -150,56.422 -150,15 L -150,0 0,0 Z"
         style="fill:#3366ff;fill-opacity:1;fill-rule:nonzero;stroke:none"
         id="path5609"
         inkscape:connector-curvature="0" /></g><path
       d="m 2600,1210 -239.998,0 0,30 239.998,0 0,-30 z"
       style="fill:#3366ff;fill-opacity:1;fill-rule:nonzero;stroke:none"
       id="path5611"
       inkscape:connector-curvature="0" /><path
       d="m 2600,1175 -239.998,0 0,30 239.998,0 0,-30 z"
       style="fill:#3366ff;fill-opacity:1;fill-rule:nonzero;stroke:none"
       id="path5613"
       inkscape:connector-curvature="0" /><path
       d="m 2949.998,1210 -309.998,0 0,30 309.998,0 0,-30 z"
       style="fill:#3366ff;fill-opacity:1;fill-rule:nonzero;stroke:none"
       id="path5615"
       inkscape:connector-curvature="0" /><path
       d="m 2949.998,1175 -309.998,0 0,30 309.998,0 0,-30 z"
       style="fill:#3366ff;fill-opacity:1;fill-rule:nonzero;stroke:none"
       id="path5617"
       inkscape:connector-curvature="0" /><path
       d="m 3154.996,1210 -199.998,0 0,30 199.998,0 0,-30 z"
       style="fill:#3366ff;fill-opacity:1;fill-rule:nonzero;stroke:none"
       id="path5619"
       inkscape:connector-curvature="0" /><path
       d="m 3154.996,1175 -199.998,0 0,30 199.998,0 0,-30 z"
       style="fill:#3366ff;fill-opacity:1;fill-rule:nonzero;stroke:none"
       id="path5621"
       inkscape:connector-curvature="0" /><path
       d="m 2635,1210 -30,0 0,30 30,0 0,-30 z"
       style="fill:#3366ff;fill-opacity:1;fill-rule:nonzero;stroke:none"
       id="path5623"
       inkscape:connector-curvature="0" /><path
       d="m 2635,1175 -30,0 0,30 30,0 0,-30 z"
       style="fill:#3366ff;fill-opacity:1;fill-rule:nonzero;stroke:none"
       id="path5625"
       inkscape:connector-curvature="0" /><path
       d="m 3259.998,1210 -100.006,0 0,30 100.006,0 0,-30 z"
       style="fill:#3366ff;fill-opacity:1;fill-rule:nonzero;stroke:none"
       id="path5627"
       inkscape:connector-curvature="0" /><path
       d="m 3259.998,1175 -100.006,0 0,30 100.006,0 0,-30 z"
       style="fill:#3366ff;fill-opacity:1;fill-rule:nonzero;stroke:none"
       id="path5629"
       inkscape:connector-curvature="0" /><g
       id="g5631"
       transform="translate(3260,1305)"><path
         d="m 0,0 c 0,-16.568 -13.431,-30 -30,-30 l -90,0 c -16.569,0 -30,13.432 -30,30 0,16.568 13.431,30 30,30 l 90,0 C -13.431,30 0,16.568 0,0"
         style="fill:#3366ff;fill-opacity:1;fill-rule:nonzero;stroke:none"
         id="path5633"
         inkscape:connector-curvature="0" /></g><g
       id="g5635"
       transform="translate(3105,1305)"><path
         d="m 0,0 c 0,-16.568 -13.431,-30 -30,-30 l -90,0 c -16.569,0 -30,13.432 -30,30 0,16.568 13.431,30 30,30 l 90,0 C -13.431,30 0,16.568 0,0"
         style="fill:#3366ff;fill-opacity:1;fill-rule:nonzero;stroke:none"
         id="path5637"
         inkscape:connector-curvature="0" /></g><g
       id="g5639"
       transform="translate(3260,1370)"><path
         d="m 0,0 c 0,-16.568 -13.431,-30 -30,-30 l -90,0 c -16.569,0 -30,13.432 -30,30 0,16.568 13.431,30 30,30 l 90,0 C -13.431,30 0,16.568 0,0"
         style="fill:#3366ff;fill-opacity:1;fill-rule:nonzero;stroke:none"
         id="path5641"
         inkscape:connector-curvature="0" /></g><g
       id="g5643"
       transform="translate(3105,1370)"><path
         d="m 0,0 c 0,-16.568 -13.431,-30 -30,-30 l -90,0 c -16.569,0 -30,13.432 -30,30 0,16.568 13.431,30 30,30 l 90,0 C -13.431,30 0,16.568 0,0"
         style="fill:#3366ff;fill-opacity:1;fill-rule:nonzero;stroke:none"
         id="path5645"
         inkscape:connector-curvature="0" /></g><g
       id="g5647"
       transform="translate(1077,1375)"><path
         d="m 0,0 0,30 -8,0 c -16.568,0 -30,14 -30,30 l -34,0 -91,0 -25,0 c 0,-33 26.861,-60 60,-60 L 0,0 Z"
         style="fill:#3366ff;fill-opacity:1;fill-rule:nonzero;stroke:none"
         id="path5649"
         inkscape:connector-curvature="0" /></g><g
       id="g5651"
       transform="translate(475,1370.0005)"><path
         d="M 0,0 C 0,33.139 26.861,60 60,60"
         style="fill:#3366ff;fill-opacity:1;fill-rule:nonzero;stroke:none"
         id="path5653"
         inkscape:connector-curvature="0" /></g><g
       id="g5655"
       transform="translate(395,694)"><path
         d="M 0,0 C 0,88.366 71.634,160 160,160"
         style="fill:#3366ff;fill-opacity:1;fill-rule:nonzero;stroke:none"
         id="path5657"
         inkscape:connector-curvature="0" /></g><g
       id="g5659"
       transform="translate(946,756)"><path
         d="m 0,0 c 0,88.366 71.634,160 160,160 l 360,0 0,-318 -295,0 c -41.422,0 -75,-33.578 -75,-75 l -125,0 -25,0 0,233 z"
         style="fill:#3366ff;fill-opacity:1;fill-rule:nonzero;stroke:none"
         id="path5661"
         inkscape:connector-curvature="0" /></g><path
       d="m 0,2025 -150,0 0,60 150,0 0,-60 z"
       style="fill:#515050;fill-opacity:1;fill-rule:nonzero;stroke:none"
       id="path5663"
       inkscape:connector-curvature="0" /><path
       d="m 0,1960 -150,0 0,60 150,0 0,-60 z"
       style="fill:#515050;fill-opacity:1;fill-rule:nonzero;stroke:none"
       id="path5665"
       inkscape:connector-curvature="0" /><path
       d="m 0,1895 -150,0 0,60 150,0 0,-60 z"
       style="fill:#515050;fill-opacity:1;fill-rule:nonzero;stroke:none"
       id="path5667"
       inkscape:connector-curvature="0" /><path
       d="m 0,1830 -150,0 0,60 150,0 0,-60 z"
       style="fill:#515050;fill-opacity:1;fill-rule:nonzero;stroke:none"
       id="path5669"
       inkscape:connector-curvature="0" /><path
       d="m 0,1765 -150,0 0,60 150,0 0,-60 z"
       style="fill:#515050;fill-opacity:1;fill-rule:nonzero;stroke:none"
       id="path5671"
       inkscape:connector-curvature="0" /><path
       d="m 0,1700 -150,0 0,60 150,0 0,-60 z"
       style="fill:#515050;fill-opacity:1;fill-rule:nonzero;stroke:none"
       id="path5673"
       inkscape:connector-curvature="0" /><path
       d="m 0,1635 -150,0 0,60 150,0 0,-60 z"
       style="fill:#515050;fill-opacity:1;fill-rule:nonzero;stroke:none"
       id="path5675"
       inkscape:connector-curvature="0" /><path
       d="m 0,1570 -150,0 0,60 150,0 0,-60 z"
       style="fill:#515050;fill-opacity:1;fill-rule:nonzero;stroke:none"
       id="path5677"
       inkscape:connector-curvature="0" /><path
       d="m 0,1505 -150,0 0,60 150,0 0,-60 z"
       style="fill:#515050;fill-opacity:1;fill-rule:nonzero;stroke:none"
       id="path5679"
       inkscape:connector-curvature="0" /><path
       d="m 0,1440 -150,0 0,60 150,0 0,-60 z"
       style="fill:#515050;fill-opacity:1;fill-rule:nonzero;stroke:none"
       id="path5681"
       inkscape:connector-curvature="0" /><path
       d="m 0,1375 -150,0 0,60 150,0 0,-60 z"
       style="fill:#515050;fill-opacity:1;fill-rule:nonzero;stroke:none"
       id="path5683"
       inkscape:connector-curvature="0" /><path
       d="m 0,1310 -150,0 0,60 150,0 0,-60 z"
       style="fill:#515050;fill-opacity:1;fill-rule:nonzero;stroke:none"
       id="path5685"
       inkscape:connector-curvature="0" /><path
       d="m 0,1245 -150,0 0,60 150,0 0,-60 z"
       style="fill:#515050;fill-opacity:1;fill-rule:nonzero;stroke:none"
       id="path5687"
       inkscape:connector-curvature="0" /><path
       d="m 0,1180 -150,0 0,60 150,0 0,-60 z"
       style="fill:#515050;fill-opacity:1;fill-rule:nonzero;stroke:none"
       id="path5689"
       inkscape:connector-curvature="0" /><path
       d="m 0,1115 -150,0 0,60 150,0 0,-60 z"
       style="fill:#515050;fill-opacity:1;fill-rule:nonzero;stroke:none"
       id="path5691"
       inkscape:connector-curvature="0" /><path
       d="m 0,1050 -150,0 0,60 150,0 0,-60 z"
       style="fill:#515050;fill-opacity:1;fill-rule:nonzero;stroke:none"
       id="path5693"
       inkscape:connector-curvature="0" /><path
       d="m 0,985 -150,0 0,60 150,0 0,-60 z"
       style="fill:#515050;fill-opacity:1;fill-rule:nonzero;stroke:none"
       id="path5695"
       inkscape:connector-curvature="0" /><path
       d="m 0,920 -150,0 0,60 150,0 0,-60 z"
       style="fill:#515050;fill-opacity:1;fill-rule:nonzero;stroke:none"
       id="path5697"
       inkscape:connector-curvature="0" /><path
       d="m 0,855 -150,0 0,60 150,0 0,-60 z"
       style="fill:#515050;fill-opacity:1;fill-rule:nonzero;stroke:none"
       id="path5699"
       inkscape:connector-curvature="0" /><path
       d="m 0,790 -150,0 0,60 150,0 0,-60 z"
       style="fill:#515050;fill-opacity:1;fill-rule:nonzero;stroke:none"
       id="path5701"
       inkscape:connector-curvature="0" /><path
       d="m 0,725 -150,0 0,60 150,0 0,-60 z"
       style="fill:#515050;fill-opacity:1;fill-rule:nonzero;stroke:none"
       id="path5703"
       inkscape:connector-curvature="0" /><path
       d="m 0,660 -150,0 0,60 150,0 0,-60 z"
       style="fill:#515050;fill-opacity:1;fill-rule:nonzero;stroke:none"
       id="path5705"
       inkscape:connector-curvature="0" /><path
       d="m 0,595 -150,0 0,60 150,0 0,-60 z"
       style="fill:#515050;fill-opacity:1;fill-rule:nonzero;stroke:none"
       id="path5707"
       inkscape:connector-curvature="0" /><path
       d="m 0,530 -150,0 0,60 150,0 0,-60 z"
       style="fill:#515050;fill-opacity:1;fill-rule:nonzero;stroke:none"
       id="path5709"
       inkscape:connector-curvature="0" /><path
       d="m 0,465 -150,0 0,60 150,0 0,-60 z"
       style="fill:#515050;fill-opacity:1;fill-rule:nonzero;stroke:none"
       id="path5711"
       inkscape:connector-curvature="0" /><path
       d="m 0,400 -150,0 0,60 150,0 0,-60 z"
       style="fill:#515050;fill-opacity:1;fill-rule:nonzero;stroke:none"
       id="path5713"
       inkscape:connector-curvature="0" /><path
       d="m 0,335 -150,0 0,60 150,0 0,-60 z"
       style="fill:#515050;fill-opacity:1;fill-rule:nonzero;stroke:none"
       id="path5715"
       inkscape:connector-curvature="0" /><path
       d="m 0,270 -150,0 0,60 150,0 0,-60 z"
       style="fill:#515050;fill-opacity:1;fill-rule:nonzero;stroke:none"
       id="path5717"
       inkscape:connector-curvature="0" /><path
       d="m 0,205 -150,0 0,60 150,0 0,-60 z"
       style="fill:#515050;fill-opacity:1;fill-rule:nonzero;stroke:none"
       id="path5719"
       inkscape:connector-curvature="0" /><path
       d="m 0,140 -150,0 0,60 150,0 0,-60 z"
       style="fill:#515050;fill-opacity:1;fill-rule:nonzero;stroke:none"
       id="path5721"
       inkscape:connector-curvature="0" /><path
       d="m 0,75 -150,0 0,60 150,0 0,-60 z"
       style="fill:#515050;fill-opacity:1;fill-rule:nonzero;stroke:none"
       id="path5723"
       inkscape:connector-curvature="0" /><path
       d="m 0,10 -150,0 0,60 150,0 0,-60 z"
       style="fill:#515050;fill-opacity:1;fill-rule:nonzero;stroke:none"
       id="path5725"
       inkscape:connector-curvature="0" /><path
       d="m 10.001,2155 150,0 0,-60 -150,0 0,60 z"
       style="fill:#515050;fill-opacity:1;fill-rule:nonzero;stroke:none"
       id="path5727"
       inkscape:connector-curvature="0" /><path
       d="m 165,2155 150,0 0,-60 -150,0 0,60 z"
       style="fill:#515050;fill-opacity:1;fill-rule:nonzero;stroke:none"
       id="path5729"
       inkscape:connector-curvature="0" /><path
       d="m 320,2155 150,0 0,-60 -150,0 0,60 z"
       style="fill:#515050;fill-opacity:1;fill-rule:nonzero;stroke:none"
       id="path5731"
       inkscape:connector-curvature="0" /><path
       d="m 475,2155 150,0 0,-60 -150,0 0,60 z"
       style="fill:#515050;fill-opacity:1;fill-rule:nonzero;stroke:none"
       id="path5733"
       inkscape:connector-curvature="0" /><path
       d="m 630,2155 150,0 0,-60 -150,0 0,60 z"
       style="fill:#515050;fill-opacity:1;fill-rule:nonzero;stroke:none"
       id="path5735"
       inkscape:connector-curvature="0" /><path
       d="m 785,2155 150,0 0,-60 -150,0 0,60 z"
       style="fill:#515050;fill-opacity:1;fill-rule:nonzero;stroke:none"
       id="path5737"
       inkscape:connector-curvature="0" /><path
       d="m 940,2155 150,0 0,-60 -150,0 0,60 z"
       style="fill:#515050;fill-opacity:1;fill-rule:nonzero;stroke:none"
       id="path5739"
       inkscape:connector-curvature="0" /><path
       d="m 1094.999,2155 150,0 0,-60 -150,0 0,60 z"
       style="fill:#515050;fill-opacity:1;fill-rule:nonzero;stroke:none"
       id="path5741"
       inkscape:connector-curvature="0" /><path
       d="m 1250,2155 150,0 0,-60 -150,0 0,60 z"
       style="fill:#515050;fill-opacity:1;fill-rule:nonzero;stroke:none"
       id="path5743"
       inkscape:connector-curvature="0" /><path
       d="m 1404.999,2155 150,0 0,-60 -150,0 0,60 z"
       style="fill:#515050;fill-opacity:1;fill-rule:nonzero;stroke:none"
       id="path5745"
       inkscape:connector-curvature="0" /><path
       d="m 1559.999,2155 150.001,0 0,-60 -150.001,0 0,60 z"
       style="fill:#515050;fill-opacity:1;fill-rule:nonzero;stroke:none"
       id="path5747"
       inkscape:connector-curvature="0" /><path
       d="m 1714.999,2155 150,0 0,-60 -150,0 0,60 z"
       style="fill:#515050;fill-opacity:1;fill-rule:nonzero;stroke:none"
       id="path5749"
       inkscape:connector-curvature="0" /><path
       d="m 1870,2155 149.999,0 0,-60 -149.999,0 0,60 z"
       style="fill:#515050;fill-opacity:1;fill-rule:nonzero;stroke:none"
       id="path5751"
       inkscape:connector-curvature="0" /><path
       d="m 2024.999,2155 150,0 0,-60 -150,0 0,60 z"
       style="fill:#515050;fill-opacity:1;fill-rule:nonzero;stroke:none"
       id="path5753"
       inkscape:connector-curvature="0" /><path
       d="m 2179.999,2155 150.002,0 0,-60 -150.002,0 0,60 z"
       style="fill:#515050;fill-opacity:1;fill-rule:nonzero;stroke:none"
       id="path5755"
       inkscape:connector-curvature="0" /><path
       d="m 2335.001,2155 150,0 0,-60 -150,0 0,60 z"
       style="fill:#515050;fill-opacity:1;fill-rule:nonzero;stroke:none"
       id="path5757"
       inkscape:connector-curvature="0" /><path
       d="m 2490.001,2155 149.998,0 0,-60 -149.998,0 0,60 z"
       style="fill:#515050;fill-opacity:1;fill-rule:nonzero;stroke:none"
       id="path5759"
       inkscape:connector-curvature="0" /><path
       d="m 2644.999,2155 150,0 0,-60 -150,0 0,60 z"
       style="fill:#515050;fill-opacity:1;fill-rule:nonzero;stroke:none"
       id="path5761"
       inkscape:connector-curvature="0" /><path
       d="m 2799.999,2155 150,0 0,-60 -150,0 0,60 z"
       style="fill:#515050;fill-opacity:1;fill-rule:nonzero;stroke:none"
       id="path5763"
       inkscape:connector-curvature="0" /><path
       d="m 2954.999,2155 149.998,0 0,-60 -149.998,0 0,60 z"
       style="fill:#515050;fill-opacity:1;fill-rule:nonzero;stroke:none"
       id="path5765"
       inkscape:connector-curvature="0" /><path
       d="m 3109.997,2155 150,0 0,-60 -150,0 0,60 z"
       style="fill:#515050;fill-opacity:1;fill-rule:nonzero;stroke:none"
       id="path5767"
       inkscape:connector-curvature="0" /><path
       d="m 3264.997,2155 150,0 0,-60 -150,0 0,60 z"
       style="fill:#515050;fill-opacity:1;fill-rule:nonzero;stroke:none"
       id="path5769"
       inkscape:connector-curvature="0" /><path
       d="m 3419.997,2155 150.002,0 0,-60 -150.002,0 0,60 z"
       style="fill:#515050;fill-opacity:1;fill-rule:nonzero;stroke:none"
       id="path5771"
       inkscape:connector-curvature="0" /><path
       d="m 3574.999,2155 150,0 0,-60 -150,0 0,60 z"
       style="fill:#515050;fill-opacity:1;fill-rule:nonzero;stroke:none"
       id="path5773"
       inkscape:connector-curvature="0" /></g></svg>