<?xml version="1.0" encoding="UTF-8" standalone="no"?>
<!-- Created with Inkscape (http://www.inkscape.org/) -->

<svg
   xmlns:dc="http://purl.org/dc/elements/1.1/"
   xmlns:cc="http://creativecommons.org/ns#"
   xmlns:rdf="http://www.w3.org/1999/02/22-rdf-syntax-ns#"
   xmlns:svg="http://www.w3.org/2000/svg"
   xmlns="http://www.w3.org/2000/svg"
   xmlns:sodipodi="http://sodipodi.sourceforge.net/DTD/sodipodi-0.dtd"
   xmlns:inkscape="http://www.inkscape.org/namespaces/inkscape"
   id="svg5297"
   version="1.1"
   inkscape:version="0.91 r13725"
   xml:space="preserve"
   width="960"
   height="640"
   viewBox="0 0 960 640"
   sodipodi:docname="mainscreen.svg"><metadata
     id="metadata5303"><rdf:RDF><cc:Work
         rdf:about=""><dc:format>image/svg+xml</dc:format><dc:type
           rdf:resource="http://purl.org/dc/dcmitype/StillImage" /><dc:title></dc:title></cc:Work></rdf:RDF></metadata><defs
     id="defs5301"><clipPath
       clipPathUnits="userSpaceOnUse"
       id="clipPath5313"><path
         d="m 0,2095 3735,0 L 3735,0 0,0 0,2095 Z"
         id="path5315"
         inkscape:connector-curvature="0" /></clipPath><clipPath
       clipPathUnits="userSpaceOnUse"
       id="clipPath5395"><path
         d="m 0,2095 3735,0 L 3735,0 0,0 0,2095 Z"
         id="path5397"
         inkscape:connector-curvature="0" /></clipPath><clipPath
       clipPathUnits="userSpaceOnUse"
       id="clipPath5411"><path
         d="m 0,2095 3735,0 L 3735,0 0,0 0,2095 Z"
         id="path5413"
         inkscape:connector-curvature="0" /></clipPath><clipPath
       clipPathUnits="userSpaceOnUse"
       id="clipPath5425"><path
         d="m 0,2095 3735,0 L 3735,0 0,0 0,2095 Z"
         id="path5427"
         inkscape:connector-curvature="0" /></clipPath><clipPath
       clipPathUnits="userSpaceOnUse"
       id="clipPath5459"><path
         d="m 0,2095 3735,0 L 3735,0 0,0 0,2095 Z"
         id="path5461"
         inkscape:connector-curvature="0" /></clipPath><clipPath
       clipPathUnits="userSpaceOnUse"
       id="clipPath5565"><path
         d="m 0,2095 3735,0 L 3735,0 0,0 0,2095 Z"
         id="path5567"
         inkscape:connector-curvature="0" /></clipPath><clipPath
       clipPathUnits="userSpaceOnUse"
       id="clipPath5589"><path
         d="m 0,2095 3735,0 L 3735,0 0,0 0,2095 Z"
         id="path5591"
         inkscape:connector-curvature="0" /></clipPath><clipPath
       clipPathUnits="userSpaceOnUse"
       id="clipPath5811"><path
         d="m 0,2095 3735,0 L 3735,0 0,0 0,2095 Z"
         id="path5813"
         inkscape:connector-curvature="0" /></clipPath><clipPath
       clipPathUnits="userSpaceOnUse"
       id="clipPath5827"><path
         d="m 0,2095 3735,0 L 3735,0 0,0 0,2095 Z"
         id="path5829"
         inkscape:connector-curvature="0" /></clipPath><clipPath
       clipPathUnits="userSpaceOnUse"
       id="clipPath5847"><path
         d="m 0,2095 3735,0 L 3735,0 0,0 0,2095 Z"
         id="path5849"
         inkscape:connector-curvature="0" /></clipPath><clipPath
       clipPathUnits="userSpaceOnUse"
       id="clipPath5867"><path
         d="m 0,2095 3735,0 L 3735,0 0,0 0,2095 Z"
         id="path5869"
         inkscape:connector-curvature="0" /></clipPath><clipPath
       clipPathUnits="userSpaceOnUse"
       id="clipPath5881"><path
         d="m 0,2095 3735,0 L 3735,0 0,0 0,2095 Z"
         id="path5883"
         inkscape:connector-curvature="0" /></clipPath></defs><sodipodi:namedview
     pagecolor="#000000"
     bordercolor="#666666"
     borderopacity="1"
     objecttolerance="10"
     gridtolerance="10"
     guidetolerance="10"
     inkscape:pageopacity="0"
     inkscape:pageshadow="2"
     inkscape:window-width="1453"
     inkscape:window-height="908"
     id="namedview5299"
     showgrid="false"
     inkscape:zoom="0.70710678"
     inkscape:cx="486.61916"
     inkscape:cy="417.26316"
     inkscape:window-x="30"
     inkscape:window-y="58"
     inkscape:window-maximized="0"
     inkscape:current-layer="g5305"
     inkscape:snap-text-baseline="true"
     showguides="true"><inkscape:grid
       type="xygrid"
       id="grid7424" /><sodipodi:guide
       position="0,0"
       orientation="0,960"
       id="guide7462" /><sodipodi:guide
       position="953.88705,655.48799"
       orientation="-640,0"
       id="guide7464" /><sodipodi:guide
       position="960,640"
       orientation="0,-960"
       id="guide7466" /><sodipodi:guide
       position="0,640"
       orientation="640,0"
       id="guide7468" /></sodipodi:namedview><g
     id="g5305"
     inkscape:groupmode="layer"
     inkscape:label="lcarssdk_vectorTemplate"
     transform="matrix(1.25,0,0,-1.25,0,640)"><g
       id="g5421"
       transform="translate(-2050.044,-676.55977)"><g
         id="g5423"
         clip-path="url(#clipPath5425)"><path
           d="m 1865,1049 -150,0 0,60 150,0 0,-60 z"
           style="fill:#3366ff;fill-opacity:1;fill-rule:nonzero;stroke:none"
           id="path5429"
           inkscape:connector-curvature="0" /><g
           id="g5431"
           transform="translate(1865,1146)"><path
             d="m 0,0 c 0,-16.568 -13.432,-30 -30,-30 l -90,0 c -16.568,0 -30,13.432 -30,30 0,16.568 13.432,30 30,30 l 90,0 C -13.432,30 0,16.568 0,0"
             style="fill:#3366ff;fill-opacity:1;fill-rule:nonzero;stroke:none"
             id="path5433"
             inkscape:connector-curvature="0" /></g><path
           d="m 1865,1015 -150,0 0,30 150,0 0,-30 z"
           style="fill:#3366ff;fill-opacity:1;fill-rule:nonzero;stroke:none"
           id="path5435"
           inkscape:connector-curvature="0" /><path
           d="m 1865,964 -150,0 0,15 150,0 0,-15 z"
           style="fill:#3366ff;fill-opacity:1;fill-rule:nonzero;stroke:none"
           id="path5437"
           inkscape:connector-curvature="0" /><g
           id="g5439"
           transform="translate(1730,885.0005)"><path
             d="m 0,0 c -8.284,0 -15,6.716 -15,15 0,8.284 6.716,15 15,15 L 15,30 15,0 0,0 Z"
             style="fill:#3366ff;fill-opacity:1;fill-rule:nonzero;stroke:none"
             id="path5441"
             inkscape:connector-curvature="0" /></g></g></g><path
       d="m 78.47578,130.10184 -73.0977691,0 0,30.22859 73.0977691,0 0,-30.22859 z"
       style="fill:#cc99cc;fill-opacity:1;fill-rule:nonzero;stroke:none"
       id="path5593"
       inkscape:connector-curvature="0" /><path
       d="m 78.47578,162.90225 -73.0977691,0 0,85.80107 73.0977691,0 0,-85.80107 z"
       style="fill:#9999ff;fill-opacity:1;fill-rule:nonzero;stroke:none"
       id="path5597"
       inkscape:connector-curvature="0" /><path
       d="m 78.47578,3.4006903 -73.0977691,0 0,124.2635997 73.0977691,0 0,-124.2635997 z"
       style="fill:#ff9900;fill-opacity:1;fill-rule:nonzero;stroke:none"
       id="path5599"
       inkscape:connector-curvature="0" /><path
       d="m 78.47578,424.88987 -73.0977691,0 0,81.27868 73.0977691,0 0,-81.27868 z"
       style="fill:#ff9900;fill-opacity:1;fill-rule:nonzero;stroke:none"
       id="path5601"
       inkscape:connector-curvature="0" /><g
       style="fill:#ff9900;fill-opacity:1"
       id="g5603"
       transform="matrix(0.48731194,0,0,0.48731194,78.474807,422.01801)"><path
         d="m 0,0 0,-100 c 0,-16.568 13,-30 30,-30 l 0,-5 0,-25 -104.998,0 c -41.422,0 -75.002,33.578 -75.002,75 l 0,85 150,0 z"
         style="fill:#ff9900;fill-opacity:1;fill-rule:nonzero;stroke:none"
         id="path5605"
         inkscape:connector-curvature="0" /></g><path
       d="m 210.04903,344.0481 -116.953885,0 0,14.61938 116.953885,0 0,-14.61938 z"
       style="fill:#ff9900;fill-opacity:1;fill-rule:nonzero;stroke:none"
       id="path5611"
       inkscape:connector-curvature="0" /><path
       d="m 364.60724,344.0481 -151.06573,0 0,14.61938 151.06573,0 0,-14.61938 z"
       style="fill:#ff9900;fill-opacity:1;fill-rule:nonzero;stroke:none"
       id="path5615"
       inkscape:connector-curvature="0" /><path
       d="m 464.50522,344.0481 -97.46142,0 0,14.61938 97.46142,0 0,-14.61938 z"
       style="fill:#ff9900;fill-opacity:1;fill-rule:nonzero;stroke:none"
       id="path5619"
       inkscape:connector-curvature="0" /><path
       d="m 481.50496,344.0481 -15.75074,0 0,14.61938 15.75074,0 0,-14.61938 z"
       style="fill:#cc6666;fill-opacity:1;fill-rule:nonzero;stroke:none"
       id="path5623"
       inkscape:connector-curvature="0" /><path
       d="m 763.06356,344.0481 -280.12373,0 0,14.61938 280.12373,0 0,-14.61938 z"
       style="fill:#ffcc99;fill-opacity:1;fill-rule:nonzero;stroke:none"
       id="path5627"
       inkscape:connector-curvature="0" /><g
       style="fill:#ff9900;fill-opacity:1"
       id="g5607"
       transform="matrix(0.48731194,0,0,0.48731194,78.474807,297.75346)"><path
         d="m 0,0 0,30 c 0,16.568 13,30 30,30 l 0,5 0,25 -104.998,0 C -116.42,90 -150,56.422 -150,15 L -150,0 0,0 Z"
         style="fill:#ff9900;fill-opacity:1;fill-rule:nonzero;stroke:none"
         id="path5609"
         inkscape:connector-curvature="0" /></g><path
       d="m 210.04903,326.9922 -116.953885,0 0,14.61938 116.953885,0 0,-14.61938 z"
       style="fill:#ff9900;fill-opacity:1;fill-rule:nonzero;stroke:none"
       id="path5613"
       inkscape:connector-curvature="0" /><path
       d="m 364.60724,326.9922 -151.06573,0 0,14.61938 151.06573,0 0,-14.61938 z"
       style="fill:#ff9900;fill-opacity:1;fill-rule:nonzero;stroke:none"
       id="path5617"
       inkscape:connector-curvature="0" /><path
       d="m 464.50522,326.9922 -97.46142,0 0,14.61938 97.46142,0 0,-14.61938 z"
       style="fill:#ff9900;fill-opacity:1;fill-rule:nonzero;stroke:none"
       id="path5621"
       inkscape:connector-curvature="0" /><path
       d="m 481.50496,326.9922 -15.75074,0 0,14.61938 15.75074,0 0,-14.61938 z"
       style="fill:#cc6666;fill-opacity:1;fill-rule:nonzero;stroke:none"
       id="path5625"
       inkscape:connector-curvature="0" /><path
       d="m 763.06356,326.9922 -280.12373,0 0,14.61938 280.12373,0 0,-14.61938 z"
       style="fill:#ffcc99;fill-opacity:1;fill-rule:nonzero;stroke:none"
       id="path5629"
       inkscape:connector-curvature="0" /><path
       inkscape:connector-curvature="0"
       id="path7470"
       style="fill:#9999cc;fill-opacity:1;fill-rule:nonzero;stroke:none"
       d="m 78.47578,252.28054 -73.0977691,0 0,42.80898 73.0977691,0 0,-42.80898 z" /></g></svg>