<?xml version="1.0" encoding="UTF-8" standalone="no"?>
<!-- Created with Inkscape (http://www.inkscape.org/) -->

<svg
   xmlns:dc="http://purl.org/dc/elements/1.1/"
   xmlns:cc="http://creativecommons.org/ns#"
   xmlns:rdf="http://www.w3.org/1999/02/22-rdf-syntax-ns#"
   xmlns:svg="http://www.w3.org/2000/svg"
   xmlns="http://www.w3.org/2000/svg"
   xmlns:sodipodi="http://sodipodi.sourceforge.net/DTD/sodipodi-0.dtd"
   xmlns:inkscape="http://www.inkscape.org/namespaces/inkscape"
   id="svg5297"
   version="1.1"
   inkscape:version="0.91 r13725"
   xml:space="preserve"
   width="960"
   height="640"
   viewBox="0 0 960 640"
   sodipodi:docname="mainscreen.svg"><metadata
     id="metadata5303"><rdf:RDF><cc:Work
         rdf:about=""><dc:format>image/svg+xml</dc:format><dc:type
           rdf:resource="http://purl.org/dc/dcmitype/StillImage" /><dc:title></dc:title></cc:Work></rdf:RDF></metadata><defs
     id="defs5301"><clipPath
       clipPathUnits="userSpaceOnUse"
       id="clipPath5313"><path
         d="m 0,2095 3735,0 L 3735,0 0,0 0,2095 Z"
         id="path5315"
         inkscape:connector-curvature="0" /></clipPath><clipPath
       clipPathUnits="userSpaceOnUse"
       id="clipPath5395"><path
         d="m 0,2095 3735,0 L 3735,0 0,0 0,2095 Z"
         id="path5397"
         inkscape:connector-curvature="0" /></clipPath><clipPath
       clipPathUnits="userSpaceOnUse"
       id="clipPath5411"><path
         d="m 0,2095 3735,0 L 3735,0 0,0 0,2095 Z"
         id="path5413"
         inkscape:connector-curvature="0" /></clipPath><clipPath
       clipPathUnits="userSpaceOnUse"
       id="clipPath5425"><path
         d="m 0,2095 3735,0 L 3735,0 0,0 0,2095 Z"
         id="path5427"
         inkscape:connector-curvature="0" /></clipPath><clipPath
       clipPathUnits="userSpaceOnUse"
       id="clipPath5459"><path
         d="m 0,2095 3735,0 L 3735,0 0,0 0,2095 Z"
         id="path5461"
         inkscape:connector-curvature="0" /></clipPath><clipPath
       clipPathUnits="userSpaceOnUse"
       id="clipPath5565"><path
         d="m 0,2095 3735,0 L 3735,0 0,0 0,2095 Z"
         id="path5567"
         inkscape:connector-curvature="0" /></clipPath><clipPath
       clipPathUnits="userSpaceOnUse"
       id="clipPath5589"><path
         d="m 0,2095 3735,0 L 3735,0 0,0 0,2095 Z"
         id="path5591"
         inkscape:connector-curvature="0" /></clipPath><clipPath
       clipPathUnits="userSpaceOnUse"
       id="clipPath5811"><path
         d="m 0,2095 3735,0 L 3735,0 0,0 0,2095 Z"
         id="path5813"
         inkscape:connector-curvature="0" /></clipPath><clipPath
       clipPathUnits="userSpaceOnUse"
       id="clipPath5827"><path
         d="m 0,2095 3735,0 L 3735,0 0,0 0,2095 Z"
         id="path5829"
         inkscape:connector-curvature="0" /></clipPath><clipPath
       clipPathUnits="userSpaceOnUse"
       id="clipPath5847"><path
         d="m 0,2095 3735,0 L 3735,0 0,0 0,2095 Z"
         id="path5849"
         inkscape:connector-curvature="0" /></clipPath><clipPath
       clipPathUnits="userSpaceOnUse"
       id="clipPath5867"><path
         d="m 0,2095 3735,0 L 3735,0 0,0 0,2095 Z"
         id="path5869"
         inkscape:connector-curvature="0" /></clipPath><clipPath
       clipPathUnits="userSpaceOnUse"
       id="clipPath5881"><path
         d="m 0,2095 3735,0 L 3735,0 0,0 0,2095 Z"
         id="path5883"
         inkscape:connector-curvature="0" /></clipPath></defs><sodipodi:namedview
     pagecolor="#000000"
     bordercolor="#666666"
     borderopacity="1"
     objecttolerance="10"
     gridtolerance="10"
     guidetolerance="10"
     inkscape:pageopacity="0"
     inkscape:pageshadow="2"
     inkscape:window-width="1680"
     inkscape:window-height="1002"
     id="namedview5299"
     showgrid="false"
     inkscape:zoom="4.4520852"
     inkscape:cx="101.73743"
     inkscape:cy="360.28015"
     inkscape:window-x="0"
     inkscape:window-y="0"
     inkscape:window-maximized="1"
     inkscape:current-layer="g5305"
     inkscape:snap-text-baseline="true"
     showguides="true"><inkscape:grid
       type="xygrid"
       id="grid7424" /><sodipodi:guide
       position="0,0"
       orientation="0,960"
       id="guide7462" /><sodipodi:guide
       position="953.88705,655.48799"
       orientation="-640,0"
       id="guide7464" /><sodipodi:guide
       position="960,640"
       orientation="0,-960"
       id="guide7466" /><sodipodi:guide
       position="0,640"
       orientation="640,0"
       id="guide7468" /></sodipodi:namedview><g
     id="g5305"
     inkscape:groupmode="layer"
     inkscape:label="lcarssdk_vectorTemplate"
     transform="matrix(1.25,0,0,-1.25,0,640)"><rect
       style="fill:#000000;fill-opacity:1;stroke:none;stroke-width:2;stroke-miterlimit:4;stroke-dasharray:none;stroke-opacity:1"
       id="rect4189"
       width="852.64441"
       height="590.94922"
       x="-45.599998"
       y="-549.59998"
       transform="scale(1,-1)"
       ry="1.3750317" /><g
       id="g5421"
       transform="translate(-2050.044,-676.55977)"><g
         id="g5423"
         clip-path="url(#clipPath5425)"><path
           d="m 1865,1049 -150,0 0,60 150,0 0,-60 z"
           style="fill:#3366ff;fill-opacity:1;fill-rule:nonzero;stroke:none"
           id="path5429"
           inkscape:connector-curvature="0" /><g
           id="g5431"
           transform="translate(1865,1146)"><path
             d="m 0,0 c 0,-16.568 -13.432,-30 -30,-30 l -90,0 c -16.568,0 -30,13.432 -30,30 0,16.568 13.432,30 30,30 l 90,0 C -13.432,30 0,16.568 0,0"
             style="fill:#3366ff;fill-opacity:1;fill-rule:nonzero;stroke:none"
             id="path5433"
             inkscape:connector-curvature="0" /></g><path
           d="m 1865,1015 -150,0 0,30 150,0 0,-30 z"
           style="fill:#3366ff;fill-opacity:1;fill-rule:nonzero;stroke:none"
           id="path5435"
           inkscape:connector-curvature="0" /><path
           d="m 1865,964 -150,0 0,15 150,0 0,-15 z"
           style="fill:#3366ff;fill-opacity:1;fill-rule:nonzero;stroke:none"
           id="path5437"
           inkscape:connector-curvature="0" /><g
           id="g5439"
           transform="translate(1730,885.0005)"><path
             d="m 0,0 c -8.284,0 -15,6.716 -15,15 0,8.284 6.716,15 15,15 L 15,30 15,0 0,0 Z"
             style="fill:#3366ff;fill-opacity:1;fill-rule:nonzero;stroke:none"
             id="path5441"
             inkscape:connector-curvature="0" /></g></g></g><path
       d="m 78.47578,2.10184 -73.0977691,0 0,62.239744 73.0977691,0 0,-62.239744 z"
       style="fill:#cc6666;fill-opacity:1;fill-rule:nonzero;stroke:none"
       id="path5593"
       inkscape:connector-curvature="0" /><path
       d="m 78.47578,198.07954 -73.0977691,0 0,64.30502 73.0977691,0 0,-64.30502 z"
       style="fill:#6666ff;fill-opacity:1;fill-rule:nonzero;stroke:none"
       id="path5597"
       inkscape:connector-curvature="0" /><path
       d="m 78.47578,424.88987 -73.0977691,0 0,81.27868 73.0977691,0 0,-81.27868 z"
       style="fill:#9999ff;fill-opacity:1;fill-rule:nonzero;stroke:none"
       id="path5601"
       inkscape:connector-curvature="0" /><g
       style="fill:#9999ff;fill-opacity:1"
       id="g5603"
       transform="matrix(0.48731194,0,0,0.48731194,78.474807,422.01801)"><path
         d="m 0,0 0,-100 c 0,-16.568 13,-30 30,-30 l 0,-5 0,-25 -104.998,0 c -41.422,0 -75.002,33.578 -75.002,75 l 0,85 150,0 z"
         style="fill:#9999ff;fill-opacity:1;fill-rule:nonzero;stroke:none"
         id="path5605"
         inkscape:connector-curvature="0" /></g><path
       d="m 210.04903,344.0481 -122.036316,0 0,14.61938 122.036316,0 0,-14.61938 z"
       style="fill:#9999ff;fill-opacity:1;fill-rule:nonzero;stroke:none"
       id="path5611"
       inkscape:connector-curvature="0" /><path
       d="m 317.16879,344.0481 -105.42419,0 0,14.61938 105.42419,0 0,-14.61938 z"
       style="fill:#9999ff;fill-opacity:1;fill-rule:nonzero;stroke:none"
       id="path5615"
       inkscape:connector-curvature="0" /><path
       d="m 418.35938,355.54833 -80.78492,0 0,3.11915 80.78492,0 0,-3.11915 z"
       style="fill:#9999ff;fill-opacity:1;fill-rule:nonzero;stroke:none"
       id="path5619"
       inkscape:connector-curvature="0" /><path
       d="m 436.59887,344.0481 -16.76723,0 0,14.61938 16.76723,0 0,-14.61938 z"
       style="fill:#cc6666;fill-opacity:1;fill-rule:nonzero;stroke:none"
       id="path5623"
       inkscape:connector-curvature="0" /><path
       d="m 210.04903,326.9922 -127.881112,0 0,14.61938 127.881112,0 0,-14.61938 z"
       style="fill:#9999ff;fill-opacity:1;fill-rule:nonzero;stroke:none"
       id="path5613"
       inkscape:connector-curvature="0" /><path
       d="m 317.16879,326.9922 -105.42419,0 0,14.61938 105.42419,0 0,-14.61938 z"
       style="fill:#9999ff;fill-opacity:1;fill-rule:nonzero;stroke:none"
       id="path5617"
       inkscape:connector-curvature="0" /><path
       d="m 418.35938,326.9922 -80.78492,0 0,3.11915 80.78492,0 0,-3.11915 z"
       style="fill:#9999ff;fill-opacity:1;fill-rule:nonzero;stroke:none"
       id="path5621"
       inkscape:connector-curvature="0" /><path
       d="m 436.59887,326.9922 -16.76723,0 0,14.61938 16.76723,0 0,-14.61938 z"
       style="fill:#cc6666;fill-opacity:1;fill-rule:nonzero;stroke:none"
       id="path5625"
       inkscape:connector-curvature="0" /><path
       d="m 763.06356,326.9922 -324.93467,0 0,31.72131 324.93467,0 0,-31.72131 z"
       style="fill:#9999ff;fill-opacity:1;fill-rule:nonzero;stroke:none"
       id="path5629"
       inkscape:connector-curvature="0" /><g
       transform="matrix(0.48731194,0,0,-0.48731194,78.474807,263.6481)"
       id="g4213"
       style="fill:#9999ff;fill-opacity:1"><path
         inkscape:connector-curvature="0"
         id="path4215"
         style="fill:#9999ff;fill-opacity:1;fill-rule:nonzero;stroke:none"
         d="m 0,0 0,-100 c 0,-16.568 13,-30 30,-30 l 0,-5 0,-25 -104.998,0 c -41.422,0 -75.002,33.578 -75.002,75 l 0,85 150,0 z" /></g><path
       inkscape:connector-curvature="0"
       id="path4217"
       style="fill:#99ccff;fill-opacity:1;fill-rule:nonzero;stroke:none"
       d="m 78.47578,131.75137 -73.0977691,0 0,64.87071 73.0977691,0 0,-64.87071 z" /><path
       d="m 78.47578,65.503054 -73.0977691,0 0,64.870706 73.0977691,0 0,-64.870706 z"
       style="fill:#6699cc;fill-opacity:1;fill-rule:nonzero;stroke:none"
       id="path4219"
       inkscape:connector-curvature="0" /><path
       inkscape:connector-curvature="0"
       id="path4423"
       style="fill:#cc6666;fill-opacity:1;fill-rule:nonzero;stroke:none"
       d="m 335.81609,344.0481 -16.76723,0 0,14.61938 16.76723,0 0,-14.61938 z" /><path
       inkscape:connector-curvature="0"
       id="path4425"
       style="fill:#cc6666;fill-opacity:1;fill-rule:nonzero;stroke:none"
       d="m 335.81609,326.9922 -16.76723,0 0,14.61938 16.76723,0 0,-14.61938 z" /></g></svg>