<?xml version="1.0" encoding="UTF-8" standalone="no"?>
<!-- Created with Inkscape (http://www.inkscape.org/) -->

<svg
   xmlns:dc="http://purl.org/dc/elements/1.1/"
   xmlns:cc="http://creativecommons.org/ns#"
   xmlns:rdf="http://www.w3.org/1999/02/22-rdf-syntax-ns#"
   xmlns:svg="http://www.w3.org/2000/svg"
   xmlns="http://www.w3.org/2000/svg"
   xmlns:sodipodi="http://sodipodi.sourceforge.net/DTD/sodipodi-0.dtd"
   xmlns:inkscape="http://www.inkscape.org/namespaces/inkscape"
   id="svg7710"
   version="1.1"
   inkscape:version="0.91 r13725"
   xml:space="preserve"
   width="100"
   height="42"
   viewBox="0 0 100 42"
   sodipodi:docname="betterbutton.svg"><metadata
     id="metadata7716"><rdf:RDF><cc:Work
         rdf:about=""><dc:format>image/svg+xml</dc:format><dc:type
           rdf:resource="http://purl.org/dc/dcmitype/StillImage" /><dc:title></dc:title></cc:Work></rdf:RDF></metadata><defs
     id="defs7714"><clipPath
       clipPathUnits="userSpaceOnUse"
       id="clipPath7726"><path
         d="m 0,2095 3735,0 L 3735,0 0,0 0,2095 Z"
         id="path7728"
         inkscape:connector-curvature="0" /></clipPath><clipPath
       clipPathUnits="userSpaceOnUse"
       id="clipPath7808"><path
         d="m 0,2095 3735,0 L 3735,0 0,0 0,2095 Z"
         id="path7810"
         inkscape:connector-curvature="0" /></clipPath><clipPath
       clipPathUnits="userSpaceOnUse"
       id="clipPath7824"><path
         d="m 0,2095 3735,0 L 3735,0 0,0 0,2095 Z"
         id="path7826"
         inkscape:connector-curvature="0" /></clipPath><clipPath
       clipPathUnits="userSpaceOnUse"
       id="clipPath7838"><path
         d="m 0,2095 3735,0 L 3735,0 0,0 0,2095 Z"
         id="path7840"
         inkscape:connector-curvature="0" /></clipPath><clipPath
       clipPathUnits="userSpaceOnUse"
       id="clipPath7872"><path
         d="m 0,2095 3735,0 L 3735,0 0,0 0,2095 Z"
         id="path7874"
         inkscape:connector-curvature="0" /></clipPath><clipPath
       clipPathUnits="userSpaceOnUse"
       id="clipPath7978"><path
         d="m 0,2095 3735,0 L 3735,0 0,0 0,2095 Z"
         id="path7980"
         inkscape:connector-curvature="0" /></clipPath><clipPath
       clipPathUnits="userSpaceOnUse"
       id="clipPath8002"><path
         d="m 0,2095 3735,0 L 3735,0 0,0 0,2095 Z"
         id="path8004"
         inkscape:connector-curvature="0" /></clipPath><clipPath
       clipPathUnits="userSpaceOnUse"
       id="clipPath8224"><path
         d="m 0,2095 3735,0 L 3735,0 0,0 0,2095 Z"
         id="path8226"
         inkscape:connector-curvature="0" /></clipPath><clipPath
       clipPathUnits="userSpaceOnUse"
       id="clipPath8240"><path
         d="m 0,2095 3735,0 L 3735,0 0,0 0,2095 Z"
         id="path8242"
         inkscape:connector-curvature="0" /></clipPath><clipPath
       clipPathUnits="userSpaceOnUse"
       id="clipPath8260"><path
         d="m 0,2095 3735,0 L 3735,0 0,0 0,2095 Z"
         id="path8262"
         inkscape:connector-curvature="0" /></clipPath><clipPath
       clipPathUnits="userSpaceOnUse"
       id="clipPath8280"><path
         d="m 0,2095 3735,0 L 3735,0 0,0 0,2095 Z"
         id="path8282"
         inkscape:connector-curvature="0" /></clipPath><clipPath
       clipPathUnits="userSpaceOnUse"
       id="clipPath8294"><path
         d="m 0,2095 3735,0 L 3735,0 0,0 0,2095 Z"
         id="path8296"
         inkscape:connector-curvature="0" /></clipPath></defs><sodipodi:namedview
     pagecolor="#ffffff"
     bordercolor="#666666"
     borderopacity="1"
     objecttolerance="10"
     gridtolerance="10"
     guidetolerance="10"
     inkscape:pageopacity="0"
     inkscape:pageshadow="2"
     inkscape:window-width="1550"
     inkscape:window-height="972"
     id="namedview7712"
     showgrid="false"
     inkscape:zoom="5.6568542"
     inkscape:cx="53.114708"
     inkscape:cy="31.380377"
     inkscape:window-x="0"
     inkscape:window-y="0"
     inkscape:window-maximized="0"
     inkscape:current-layer="g7718" /><g
     id="g7718"
     inkscape:groupmode="layer"
     inkscape:label="lcarssdk_vectorTemplate"
     transform="matrix(1.25,0,0,-1.25,0,42)"><path
       d="m -0.24830862,-0.46853818 80.92316462,0 0,34.46950118 -80.92316462,0 0,-34.46950118 z"
       style="fill:#000000;fill-opacity:1;fill-rule:nonzero;stroke:none"
       id="path7720"
       inkscape:connector-curvature="0" /><g
       id="g7844"
       transform="matrix(0.52207254,0,0,0.52207254,79.203237,16.754823)"
       style="fill:#ffffff;fill-opacity:1"><path
         d="m 0,0 c 0,-16.568 -13.432,-30 -30,-30 l -90,0 c -16.568,0 -30,13.432 -30,30 0,16.568 13.432,30 30,30 l 90,0 C -13.432,30 0,16.568 0,0"
         style="fill:#ffffff;fill-opacity:1;fill-rule:nonzero;stroke:none"
         id="path7846"
         inkscape:connector-curvature="0" /></g></g></svg>